STARTFONT 2.1
COMMENT  
COMMENT  
COMMENT  
COMMENT  WARNING:  This bdf file was generated from a font server using
COMMENT  fstobdf.  The resulting font is subject to the same copyright,
COMMENT  license, and trademark restrictions as the original font.  The
COMMENT  authors and distributors of fstobdf disclaim all liability for
COMMENT  misuse of the program or its output.
COMMENT  
FONT -star division-starbats-medium-r-normal--21-200-75-75-p-0-stardivision-fontspecific
SIZE 20 75 75
FONTBOUNDINGBOX 21 24 0 -5
STARTPROPERTIES 60
FONT "-star division-starbats-medium-r-normal--21-200-75-75-p-0-stardivision-fontspecific"
FONT_TYPE "TrueType"
TECHNOLOGY "TrueType"
FOUNDRY ""
FAMILY_NAME "starbats"
WEIGHT_NAME "medium"
SLANT "r"
SETWIDTH_NAME "normal"
ADD_STYLE_NAME ""
PIXEL_SIZE 20
POINT_SIZE 200
RESOLUTION_X 75
RESOLUTION_Y 75
SPACING "p"
AVERAGE_WIDTH 120
CHARSET_REGISTRY "stardivision"
CHARSET_ENCODING "fontspecific"
AVG_LOWERCASE_WIDTH 17
RAW_AVG_LOWERCASE_WIDTH 831
SUBSCRIPT_X 0
SUBSCRIPT_Y 3
SUBSCRIPT_SIZE 4
RAW_SUBSCRIPT_X 0
RAW_SUBSCRIPT_Y 211
RAW_SUBSCRIPT_SIZE 180
SUPERSCRIPT_X 0
SUPERSCRIPT_Y 11
SUPERSCRIPT_SIZE 4
RAW_SUPERSCRIPT_X 0
RAW_SUPERSCRIPT_Y 539
RAW_SUPERSCRIPT_SIZE 180
STRIKEOUT_ASCENT 6
STRIKEOUT_DESCENT -4
RAW_STRIKEOUT_ASCENT 308
RAW_STRIKEOUT_DESCENT -258
RELATIVE_SETWIDTH 50
RELATIVE_WEIGHT 40
_GALLIUM_PANOSE "2 11 5 0 0 0 0 0 0 0"
UNDERLINE_POSITION 0
UNDERLINE_THICKNESS 0
RAW_UNDERLINE_POSITION 0
RAW_UNDERLINE_THICKNESS 0
ITALIC_ANGLE 0
NORM_SPACE 6
RAW_NORM_SPACE 280
CAP_HEIGHT 12
RAW_CAP_HEIGHT 557
X_HEIGHT 11
RAW_X_HEIGHT 520
RAW_PIXEL_SIZE 1000
RAW_POINT_SIZE 9636
FONT_ASCENT 19
FONT_DESCENT 4
RAW_ASCENT 898
RAW_DESCENT 212
RAW_AVERAGE_WIDTH 6513
COPYRIGHT ""
FACE_NAME "StarB TT"
NOTICE ""
DEFAULT_CHAR 0
ENDPROPERTIES
CHARS 224
STARTCHAR space
ENCODING 32
SWIDTH 288 0
DWIDTH 6 0
BBX 0 0 0 0
ATTRIBUTES 0117
BITMAP
ENDCHAR
STARTCHAR exclam
ENCODING 33
SWIDTH 864 0
DWIDTH 18 0
BBX 16 15 1 0
ATTRIBUTES 034c
BITMAP
0ff0
1818
2004
4002
4c32
8e71
8001
8001
9009
8809
4812
6426
33cc
0810
07e0
ENDCHAR
STARTCHAR quotedbl
ENCODING 34
SWIDTH 768 0
DWIDTH 16 0
BBX 12 12 2 1
ATTRIBUTES 02ec
BITMAP
1f80
3fc0
7fe0
fff0
fff0
fff0
fff0
fff0
7fe0
3fc0
1f80
0200
ENDCHAR
STARTCHAR numbersign
ENCODING 35
SWIDTH 960 0
DWIDTH 20 0
BBX 16 15 2 0
ATTRIBUTES 03b8
BITMAP
0f80
1070
2018
400c
c00e
8007
8007
8007
8007
800f
400f
201e
103c
0ff8
01f0
ENDCHAR
STARTCHAR dollar
ENCODING 36
SWIDTH 768 0
DWIDTH 16 0
BBX 12 12 2 1
ATTRIBUTES 02ec
BITMAP
fff0
fff0
fff0
fff0
fff0
fff0
fff0
fff0
fff0
fff0
fff0
fff0
ENDCHAR
STARTCHAR percent
ENCODING 37
SWIDTH 912 0
DWIDTH 19 0
BBX 15 15 2 0
ATTRIBUTES 037c
BITMAP
fffe
fffe
c006
c006
c006
c006
c006
c006
c006
c006
c006
c006
c006
fffe
fffe
ENDCHAR
STARTCHAR ampersand
ENCODING 38
SWIDTH 912 0
DWIDTH 19 0
BBX 15 15 2 0
ATTRIBUTES 037c
BITMAP
fffe
fffe
fffe
e00e
e00e
e00e
e00e
e00e
e00e
e00e
e00e
e00e
fffe
fffe
fffe
ENDCHAR
STARTCHAR apostrophe
ENCODING 39
SWIDTH 912 0
DWIDTH 19 0
BBX 15 15 2 0
ATTRIBUTES 037c
BITMAP
fff8
800c
800e
800e
800e
800e
800e
800e
800e
800e
800e
800e
fffe
7ffe
3ffe
ENDCHAR
STARTCHAR parenleft
ENCODING 40
SWIDTH 912 0
DWIDTH 19 0
BBX 15 15 2 0
ATTRIBUTES 037c
BITMAP
3ffe
7ffe
fffe
800e
800e
800e
800e
800e
800e
800e
800e
800e
800e
800c
fff8
ENDCHAR
STARTCHAR parenright
ENCODING 41
SWIDTH 480 0
DWIDTH 10 0
BBX 6 9 2 3
ATTRIBUTES 01cb
BITMAP
10
30
78
78
fc
78
78
30
10
ENDCHAR
STARTCHAR asterisk
ENCODING 42
SWIDTH 768 0
DWIDTH 16 0
BBX 12 17 2 -1
ATTRIBUTES 02ec
BITMAP
0200
0600
0f00
0f00
1f80
3fc0
7fe0
7fe0
fff0
7fe0
7fe0
3fc0
1f80
0f00
0f00
0600
0200
ENDCHAR
STARTCHAR plus
ENCODING 43
SWIDTH 1008 0
DWIDTH 21 0
BBX 17 17 2 -1
ATTRIBUTES 03db
BITMAP
008000
01c000
03e000
07f000
0ff800
1ffc00
3ffe00
7fff00
ffff80
7fff00
3ffe00
1ffc00
0ff800
07f000
03e000
01c000
008000
ENDCHAR
STARTCHAR comma
ENCODING 44
SWIDTH 912 0
DWIDTH 19 0
BBX 15 15 2 0
ATTRIBUTES 037c
BITMAP
0100
0380
07c0
07c0
1388
3118
783c
fc7e
783c
3118
1388
07c0
07c0
0380
0100
ENDCHAR
STARTCHAR minus
ENCODING 45
SWIDTH 576 0
DWIDTH 12 0
BBX 9 9 1 3
ATTRIBUTES 0244
BITMAP
0800
1c00
3e00
7f00
ff80
7f00
3e00
1c00
0800
ENDCHAR
STARTCHAR period
ENCODING 46
SWIDTH 960 0
DWIDTH 20 0
BBX 16 15 2 0
ATTRIBUTES 03b8
BITMAP
01f0
0ff8
103c
201e
400f
800f
8007
8007
8007
8007
800e
400c
2018
1070
0f80
ENDCHAR
STARTCHAR slash
ENCODING 47
SWIDTH 816 0
DWIDTH 17 0
BBX 13 15 2 0
ATTRIBUTES 031b
BITMAP
8000
e000
5000
2c00
1300
10c0
0820
0818
0fe0
1fc0
1f00
3c00
7000
6000
8000
ENDCHAR
STARTCHAR 0
ENCODING 48
SWIDTH 960 0
DWIDTH 20 0
BBX 17 15 2 0
ATTRIBUTES 03d3
BITMAP
01c000
00e000
007000
003800
001c00
000e00
ffff00
ffff80
000700
000e00
001c00
003800
007000
00e000
01c000
ENDCHAR
STARTCHAR 1
ENCODING 49
SWIDTH 1056 0
DWIDTH 22 0
BBX 19 15 2 0
ATTRIBUTES 042b
BITMAP
03f000
01f800
00fc00
007e00
003f00
001f80
ffffc0
ffffe0
ffffc0
001f80
003f00
007e00
00fc00
01f800
03f000
ENDCHAR
STARTCHAR 2
ENCODING 50
SWIDTH 768 0
DWIDTH 16 0
BBX 14 13 1 3
ATTRIBUTES 0314
BITMAP
0004
0008
0010
0060
00c0
0180
0180
6300
e600
7e00
3c00
3800
1000
ENDCHAR
STARTCHAR 3
ENCODING 51
SWIDTH 912 0
DWIDTH 19 0
BBX 15 15 2 0
ATTRIBUTES 037c
BITMAP
7ffe
7ffe
4000
4200
4638
4778
43e0
43c0
43e0
47f8
5f38
4e00
4000
7ffe
7ffe
ENDCHAR
STARTCHAR 4
ENCODING 52
SWIDTH 912 0
DWIDTH 19 0
BBX 16 16 2 0
ATTRIBUTES 037c
BITMAP
0001
fffe
fffe
800e
801e
8036
8066
98c6
9dc6
8d86
8f06
8706
8606
8006
8006
fffe
ENDCHAR
STARTCHAR 5
ENCODING 53
SWIDTH 912 0
DWIDTH 19 0
BBX 15 15 2 0
ATTRIBUTES 037c
BITMAP
07c0
1ff0
3ff8
7fbc
7f9c
ff8e
0006
0002
0002
0006
ff8c
7fbc
3ff8
1ff0
07c0
ENDCHAR
STARTCHAR 6
ENCODING 54
SWIDTH 768 0
DWIDTH 16 0
BBX 15 7 0 2
ATTRIBUTES 0303
BITMAP
03f0
5ffe
7fec
7fe0
7fe0
7fc0
67c0
ENDCHAR
STARTCHAR 7
ENCODING 55
SWIDTH 672 0
DWIDTH 14 0
BBX 14 9 0 1
ATTRIBUTES 029f
BITMAP
0180
0f00
1300
26d8
2e24
3e24
5824
7ff8
c000
ENDCHAR
STARTCHAR 8
ENCODING 56
SWIDTH 720 0
DWIDTH 15 0
BBX 14 10 0 1
ATTRIBUTES 02e4
BITMAP
0800
7800
ae00
b580
9240
69f0
2c38
1b28
04a8
03fc
ENDCHAR
STARTCHAR 9
ENCODING 57
SWIDTH 576 0
DWIDTH 12 0
BBX 11 11 0 0
ATTRIBUTES 0247
BITMAP
0060
00c0
0180
0300
0700
0600
4c00
d800
f800
7000
6000
ENDCHAR
STARTCHAR colon
ENCODING 58
SWIDTH 672 0
DWIDTH 14 0
BBX 12 11 1 0
ATTRIBUTES 028f
BITMAP
0030
0070
00f0
61e0
e3c0
e780
ff00
fe00
fc00
f800
6000
ENDCHAR
STARTCHAR semicolon
ENCODING 59
SWIDTH 720 0
DWIDTH 15 0
BBX 14 13 0 2
ATTRIBUTES 02d8
BITMAP
0fc0
1fe0
3ff0
7ff8
fffc
fffc
fffc
fffc
fffc
7ff8
7ff8
3ff0
0fc0
ENDCHAR
STARTCHAR less
ENCODING 60
SWIDTH 624 0
DWIDTH 13 0
BBX 13 11 0 0
ATTRIBUTES 027c
BITMAP
1f80
2060
4030
4030
8018
8018
8018
8038
4030
2060
1f80
ENDCHAR
STARTCHAR equal
ENCODING 61
SWIDTH 576 0
DWIDTH 12 0
BBX 11 11 0 0
ATTRIBUTES 0230
BITMAP
ffe0
ffe0
ffe0
ffe0
ffe0
ffe0
ffe0
ffe0
ffe0
ffe0
ffe0
ENDCHAR
STARTCHAR greater
ENCODING 62
SWIDTH 528 0
DWIDTH 11 0
BBX 11 11 0 0
ATTRIBUTES 0227
BITMAP
ff80
8040
8060
8060
8060
8060
8060
8060
8060
7fe0
3fe0
ENDCHAR
STARTCHAR question
ENCODING 63
SWIDTH 576 0
DWIDTH 12 0
BBX 11 11 0 0
ATTRIBUTES 0230
BITMAP
3fe0
7fe0
8060
8060
8060
8060
8060
8060
8060
8040
ff80
ENDCHAR
STARTCHAR at
ENCODING 64
SWIDTH 528 0
DWIDTH 11 0
BBX 11 11 0 0
ATTRIBUTES 0227
BITMAP
7fe0
ffe0
8060
8060
8060
8060
8060
8060
8060
8060
ffc0
ENDCHAR
STARTCHAR A
ENCODING 65
SWIDTH 720 0
DWIDTH 15 0
BBX 11 11 3 3
ATTRIBUTES 02dc
BITMAP
0400
0e00
1f00
3f80
7fc0
ffe0
7fc0
3f80
1f00
0e00
0400
ENDCHAR
STARTCHAR B
ENCODING 66
SWIDTH 576 0
DWIDTH 12 0
BBX 11 11 0 0
ATTRIBUTES 0240
BITMAP
0400
0e00
1f00
2e80
71c0
fbe0
75c0
2e80
1f00
0e00
0400
ENDCHAR
STARTCHAR C
ENCODING 67
SWIDTH 432 0
DWIDTH 9 0
BBX 9 11 0 0
ATTRIBUTES 01a7
BITMAP
0800
1c00
3c00
3e00
7f00
ff80
7f00
3e00
1c00
1c00
0800
ENDCHAR
STARTCHAR D
ENCODING 68
SWIDTH 576 0
DWIDTH 12 0
BBX 11 11 0 0
ATTRIBUTES 0237
BITMAP
0400
0e00
0400
0400
4440
ffe0
e4e0
0400
0600
0e00
0400
ENDCHAR
STARTCHAR E
ENCODING 69
SWIDTH 576 0
DWIDTH 12 0
BBX 11 11 0 0
ATTRIBUTES 0240
BITMAP
0e00
0e00
0e00
0400
e4e0
ffe0
e4e0
0400
0e00
0e00
0e00
ENDCHAR
STARTCHAR F
ENCODING 70
SWIDTH 576 0
DWIDTH 12 0
BBX 11 11 0 0
ATTRIBUTES 0237
BITMAP
0e00
0e00
0e00
6e80
f5e0
ffe0
f5e0
4ec0
0e00
0e00
0e00
ENDCHAR
STARTCHAR G
ENCODING 71
SWIDTH 576 0
DWIDTH 12 0
BBX 11 11 0 0
ATTRIBUTES 0240
BITMAP
0400
0e00
0e00
2480
74e0
ffe0
f5e0
2400
0e00
0e00
0400
ENDCHAR
STARTCHAR H
ENCODING 72
SWIDTH 528 0
DWIDTH 11 0
BBX 11 11 0 0
ATTRIBUTES 021f
BITMAP
0400
4480
2480
1500
0e00
ffe0
0e00
1500
2480
2480
0400
ENDCHAR
STARTCHAR I
ENCODING 73
SWIDTH 576 0
DWIDTH 12 0
BBX 12 11 0 0
ATTRIBUTES 0240
BITMAP
0200
2240
2480
1d80
0f00
fff0
0f00
1d80
2280
2240
0200
ENDCHAR
STARTCHAR J
ENCODING 74
SWIDTH 576 0
DWIDTH 12 0
BBX 11 11 0 0
ATTRIBUTES 0240
BITMAP
0400
2640
3780
1b00
3b00
c7e0
3f00
1f80
36c0
2640
0400
ENDCHAR
STARTCHAR K
ENCODING 75
SWIDTH 528 0
DWIDTH 11 0
BBX 10 11 0 0
ATTRIBUTES 01fb
BITMAP
0800
0800
0c40
6d80
3f00
1e00
3f00
6d80
0840
0800
0800
ENDCHAR
STARTCHAR L
ENCODING 76
SWIDTH 576 0
DWIDTH 12 0
BBX 11 11 0 0
ATTRIBUTES 0237
BITMAP
1100
1b00
0a00
7fc0
3f80
1f00
7f80
ce60
1a00
1300
1100
ENDCHAR
STARTCHAR M
ENCODING 77
SWIDTH 576 0
DWIDTH 12 0
BBX 11 11 0 0
ATTRIBUTES 0240
BITMAP
1100
1b00
1f00
7fc0
3f80
3f80
7fc0
9f20
1b00
1300
1100
ENDCHAR
STARTCHAR N
ENCODING 78
SWIDTH 624 0
DWIDTH 13 0
BBX 12 12 0 0
ATTRIBUTES 025c
BITMAP
0200
1280
1680
4f20
3fc0
1f80
fff0
1f80
3fc0
0f80
1280
1280
ENDCHAR
STARTCHAR O
ENCODING 79
SWIDTH 480 0
DWIDTH 10 0
BBX 10 12 -1 -1
ATTRIBUTES 01df
BITMAP
00c0
1980
1b80
1f00
0e00
0e00
1e00
3f00
3300
7100
e000
c000
ENDCHAR
STARTCHAR P
ENCODING 80
SWIDTH 528 0
DWIDTH 11 0
BBX 10 11 0 0
ATTRIBUTES 0204
BITMAP
2080
71c0
7380
3f00
3e00
1c00
3e00
7f00
f780
e780
4000
ENDCHAR
STARTCHAR Q
ENCODING 81
SWIDTH 576 0
DWIDTH 12 0
BBX 12 12 0 0
ATTRIBUTES 0247
BITMAP
0700
0480
0680
0680
1a80
e270
bfd0
e270
1a80
0a80
0700
0700
ENDCHAR
STARTCHAR R
ENCODING 82
SWIDTH 576 0
DWIDTH 12 0
BBX 11 11 0 0
ATTRIBUTES 0247
BITMAP
0e00
0e00
0e00
0e00
ffe0
ffe0
ffe0
0e00
0e00
0e00
0e00
ENDCHAR
STARTCHAR S
ENCODING 83
SWIDTH 576 0
DWIDTH 12 0
BBX 11 11 0 0
ATTRIBUTES 0247
BITMAP
0400
0400
0400
0400
0400
ffe0
0600
0600
0c00
0c00
0c00
ENDCHAR
STARTCHAR T
ENCODING 84
SWIDTH 576 0
DWIDTH 12 0
BBX 12 11 0 0
ATTRIBUTES 0237
BITMAP
0f00
0f00
0f00
0f00
f1f0
f1f0
f1f0
0f00
0f00
0f00
0f00
ENDCHAR
STARTCHAR U
ENCODING 85
SWIDTH 624 0
DWIDTH 13 0
BBX 13 11 0 0
ATTRIBUTES 0273
BITMAP
0200
0200
0200
0600
fff8
38e0
0880
0f80
1d80
18c0
1040
ENDCHAR
STARTCHAR V
ENCODING 86
SWIDTH 624 0
DWIDTH 13 0
BBX 13 11 0 0
ATTRIBUTES 026c
BITMAP
0200
0500
0500
0500
7ff0
2720
1fc0
1740
1240
1dc0
3060
ENDCHAR
STARTCHAR W
ENCODING 87
SWIDTH 576 0
DWIDTH 12 0
BBX 12 11 0 0
ATTRIBUTES 024f
BITMAP
0200
0600
0b00
3f80
c670
3fc0
3f80
1f80
1d40
3bc0
30c0
ENDCHAR
STARTCHAR X
ENCODING 88
SWIDTH 576 0
DWIDTH 12 0
BBX 12 11 0 0
ATTRIBUTES 024f
BITMAP
0200
0600
0600
1b80
e670
3f40
1680
1980
1e80
39c0
2040
ENDCHAR
STARTCHAR Y
ENCODING 89
SWIDTH 624 0
DWIDTH 13 0
BBX 12 11 0 0
ATTRIBUTES 025f
BITMAP
0200
0200
0600
0a00
fbf0
2fc0
1680
1a80
1740
18c0
2040
ENDCHAR
STARTCHAR Z
ENCODING 90
SWIDTH 672 0
DWIDTH 14 0
BBX 14 12 0 0
ATTRIBUTES 02a8
BITMAP
0200
0700
0580
0580
f9c0
4038
2070
10c0
1060
1660
1fe0
3870
ENDCHAR
STARTCHAR bracketleft
ENCODING 91
SWIDTH 288 0
DWIDTH 6 0
BBX 4 19 1 -4
ATTRIBUTES 0117
BITMAP
f0
f0
c0
c0
c0
c0
c0
c0
c0
c0
c0
c0
c0
c0
c0
c0
c0
c0
f0
ENDCHAR
STARTCHAR backslash
ENCODING 92
SWIDTH 912 0
DWIDTH 19 0
BBX 15 15 2 0
ATTRIBUTES 037c
BITMAP
07c0
1ff0
3ff8
7c7c
f93e
f39e
f39e
f39e
f39e
f39e
f93e
7c7c
3ff8
1ff0
07c0
ENDCHAR
STARTCHAR bracketright
ENCODING 93
SWIDTH 912 0
DWIDTH 19 0
BBX 15 15 2 0
ATTRIBUTES 037c
BITMAP
07c0
1ff0
3ff8
78fc
fcfe
fcfe
fcfe
fcfe
fcfe
fcfe
fcfe
7cfc
3ff8
1ff0
07c0
ENDCHAR
STARTCHAR asciicircum
ENCODING 94
SWIDTH 912 0
DWIDTH 19 0
BBX 15 15 2 0
ATTRIBUTES 037c
BITMAP
07c0
1ff0
3ff8
787c
ffbe
ff9e
ff9e
ff3e
fe7e
fcfe
f9fe
701c
3ff8
1ff0
07c0
ENDCHAR
STARTCHAR underscore
ENCODING 95
SWIDTH 912 0
DWIDTH 19 0
BBX 15 15 2 0
ATTRIBUTES 037c
BITMAP
07c0
1ff0
3ff8
783c
ff9e
ff9e
ff3e
fc7e
ff1e
ff9e
ff9e
783c
3ff8
1ff0
07c0
ENDCHAR
STARTCHAR grave
ENCODING 96
SWIDTH 912 0
DWIDTH 19 0
BBX 15 15 2 0
ATTRIBUTES 037c
BITMAP
07c0
1ff0
3ff8
7e7c
fc7e
fa7e
f27e
f67e
e03e
fe7e
fe7e
7e7c
3ff8
1ff0
07c0
ENDCHAR
STARTCHAR a
ENCODING 97
SWIDTH 912 0
DWIDTH 19 0
BBX 15 15 2 0
ATTRIBUTES 037c
BITMAP
07c0
1ff0
3ff8
783c
fbfe
fbfe
f8fe
fe7e
ff3e
ff3e
7f3c
78fc
3ff8
1ff0
07c0
ENDCHAR
STARTCHAR b
ENCODING 98
SWIDTH 912 0
DWIDTH 19 0
BBX 15 15 2 0
ATTRIBUTES 037c
BITMAP
07c0
1ff0
3ff8
7c1c
f9fe
f3fe
f27e
f3be
f39e
f39e
f9be
7c7c
3ff8
1ff0
07c0
ENDCHAR
STARTCHAR c
ENCODING 99
SWIDTH 912 0
DWIDTH 19 0
BBX 15 15 2 0
ATTRIBUTES 037c
BITMAP
07c0
1ff0
3ff8
781c
7f9c
ffbe
ff7e
fe7e
fefe
fcfe
7cfc
79fc
39f8
1ff0
07c0
ENDCHAR
STARTCHAR d
ENCODING 100
SWIDTH 912 0
DWIDTH 19 0
BBX 15 15 2 0
ATTRIBUTES 037c
BITMAP
07c0
1ff0
3ff8
783c
f39e
f39e
f8be
f83e
f31e
f39e
f39e
7c7c
3ff8
1ff0
07c0
ENDCHAR
STARTCHAR e
ENCODING 101
SWIDTH 912 0
DWIDTH 19 0
BBX 15 15 2 0
ATTRIBUTES 037c
BITMAP
07c0
1ff0
3ff8
7c7c
fb3e
f39e
f39e
fb9e
fc9e
ff9e
ff3e
787c
3ff8
1ff0
07c0
ENDCHAR
STARTCHAR f
ENCODING 102
SWIDTH 912 0
DWIDTH 19 0
BBX 15 15 2 0
ATTRIBUTES 037c
BITMAP
07c0
1ff0
3ff8
471c
e64c
e4e6
e4e6
e4e6
e4e6
e4e6
e64c
671c
3ff8
1ff0
07c0
ENDCHAR
STARTCHAR g
ENCODING 103
SWIDTH 912 0
DWIDTH 19 0
BBX 15 15 2 0
ATTRIBUTES 037c
BITMAP
07c0
1830
3388
64c4
4444
8862
8862
8862
8862
8862
4444
64c4
3388
1830
07c0
ENDCHAR
STARTCHAR h
ENCODING 104
SWIDTH 912 0
DWIDTH 19 0
BBX 15 15 2 0
ATTRIBUTES 037c
BITMAP
07c0
1830
2008
4304
4104
8102
8102
8102
8102
8102
4104
610c
3118
1830
07c0
ENDCHAR
STARTCHAR i
ENCODING 105
SWIDTH 912 0
DWIDTH 19 0
BBX 15 15 2 0
ATTRIBUTES 037c
BITMAP
07c0
1830
3398
644c
4044
8042
8042
8082
8182
8302
4202
6404
37c8
1830
07c0
ENDCHAR
STARTCHAR j
ENCODING 106
SWIDTH 912 0
DWIDTH 19 0
BBX 15 15 2 0
ATTRIBUTES 037c
BITMAP
07c0
1830
3388
67c4
4064
8042
8042
8382
8042
8022
4064
67c4
3388
1830
07c0
ENDCHAR
STARTCHAR k
ENCODING 107
SWIDTH 912 0
DWIDTH 19 0
BBX 16 15 1 0
ATTRIBUTES 037c
BITMAP
07e0
1818
30cc
61c6
4142
8241
8641
8441
8841
8fe1
40c2
60c6
30cc
1818
07e0
ENDCHAR
STARTCHAR l
ENCODING 108
SWIDTH 912 0
DWIDTH 19 0
BBX 15 15 2 0
ATTRIBUTES 037c
BITMAP
07c0
1830
37c8
67c4
4404
8402
8702
8082
80c2
8042
40c4
6784
3708
1830
07c0
ENDCHAR
STARTCHAR m
ENCODING 109
SWIDTH 912 0
DWIDTH 19 0
BBX 15 15 2 0
ATTRIBUTES 037c
BITMAP
07c0
1830
3388
67c4
4404
8802
8b82
8c42
8862
8862
4c64
67c4
3388
1830
07c0
ENDCHAR
STARTCHAR n
ENCODING 110
SWIDTH 912 0
DWIDTH 19 0
BBX 15 15 2 0
ATTRIBUTES 037c
BITMAP
07c0
1830
3018
67ec
4064
8042
8082
8082
8102
8102
4204
620c
3618
1830
07c0
ENDCHAR
STARTCHAR o
ENCODING 111
SWIDTH 912 0
DWIDTH 19 0
BBX 15 15 2 0
ATTRIBUTES 037c
BITMAP
07c0
1830
3388
6444
4444
8642
8382
8382
84c2
8442
4444
6484
3308
1830
07c0
ENDCHAR
STARTCHAR p
ENCODING 112
SWIDTH 912 0
DWIDTH 19 0
BBX 16 15 1 0
ATTRIBUTES 037c
BITMAP
07e0
1818
31cc
63e6
4472
8431
8431
8271
81b1
8031
4062
67e6
33cc
1818
07e0
ENDCHAR
STARTCHAR q
ENCODING 113
SWIDTH 912 0
DWIDTH 19 0
BBX 15 15 2 0
ATTRIBUTES 037c
BITMAP
07c0
1830
38c8
69a4
4914
8b12
8b12
8b12
8b12
8b12
4914
69a4
38c8
1830
07c0
ENDCHAR
STARTCHAR r
ENCODING 114
SWIDTH 1056 0
DWIDTH 22 0
BBX 20 16 1 0
ATTRIBUTES 0410
BITMAP
ffffe0
c00070
c00070
cffe70
c00070
c00070
c00070
c00070
c00070
c00070
c00070
c00070
c00070
c00070
fffff0
7ffff0
ENDCHAR
STARTCHAR s
ENCODING 115
SWIDTH 1056 0
DWIDTH 22 0
BBX 20 18 1 1
ATTRIBUTES 042f
BITMAP
1ff800
101000
201000
e01ff0
e01c10
e01df0
e01df0
e01df0
fffdf0
e67df0
e67df0
e67df0
fffdf0
e67df0
e67df0
fffdf0
fffc10
fffff0
ENDCHAR
STARTCHAR t
ENCODING 116
SWIDTH 1056 0
DWIDTH 22 0
BBX 20 16 1 1
ATTRIBUTES 041a
BITMAP
07fe00
3fffc0
7fffe0
ff9ff0
f909f0
63fc60
f3fcf0
079e00
060600
0e0700
0e0700
0e0700
0f9f80
1fff80
1fff80
1fff80
ENDCHAR
STARTCHAR u
ENCODING 117
SWIDTH 576 0
DWIDTH 12 0
BBX 9 11 1 0
ATTRIBUTES 022c
BITMAP
c180
c180
c180
c180
c180
c180
c180
c180
c380
7780
3d80
ENDCHAR
STARTCHAR v
ENCODING 118
SWIDTH 480 0
DWIDTH 10 0
BBX 10 11 0 0
ATTRIBUTES 01f4
BITMAP
c0c0
4080
6180
6180
3100
3300
3300
1e00
1e00
0c00
0c00
ENDCHAR
STARTCHAR w
ENCODING 119
SWIDTH 720 0
DWIDTH 15 0
BBX 15 11 0 0
ATTRIBUTES 02d4
BITMAP
c386
c386
638c
628c
66cc
26c8
34d8
3458
1c70
1c70
1830
ENDCHAR
STARTCHAR x
ENCODING 120
SWIDTH 480 0
DWIDTH 10 0
BBX 10 11 0 0
ATTRIBUTES 01f4
BITMAP
6180
6180
3300
1e00
1e00
0c00
1e00
3f00
3300
6180
e1c0
ENDCHAR
STARTCHAR y
ENCODING 121
SWIDTH 480 0
DWIDTH 10 0
BBX 10 15 0 -4
ATTRIBUTES 01f4
BITMAP
c0c0
c0c0
6180
6180
3100
3300
3300
1a00
1e00
0c00
0c00
0c00
0800
5800
7000
ENDCHAR
STARTCHAR z
ENCODING 122
SWIDTH 480 0
DWIDTH 10 0
BBX 10 11 0 0
ATTRIBUTES 01f4
BITMAP
ffc0
ff80
0380
0700
0600
0c00
1800
3000
6000
dfc0
ffc0
ENDCHAR
STARTCHAR braceleft
ENCODING 123
SWIDTH 336 0
DWIDTH 7 0
BBX 6 19 0 -4
ATTRIBUTES 014f
BITMAP
1c
3c
30
30
30
30
30
30
60
c0
e0
20
30
30
30
30
30
30
1c
ENDCHAR
STARTCHAR bar
ENCODING 124
SWIDTH 240 0
DWIDTH 5 0
BBX 2 19 2 -4
ATTRIBUTES 0103
BITMAP
c0
c0
c0
c0
c0
c0
c0
c0
c0
c0
c0
c0
c0
c0
c0
c0
c0
c0
c0
ENDCHAR
STARTCHAR braceright
ENCODING 125
SWIDTH 336 0
DWIDTH 7 0
BBX 6 19 0 -4
ATTRIBUTES 014f
BITMAP
e0
e0
30
30
30
30
30
30
18
0c
1c
10
30
30
30
30
30
70
e0
ENDCHAR
STARTCHAR asciitilde
ENCODING 126
SWIDTH 576 0
DWIDTH 12 0
BBX 10 3 1 6
ATTRIBUTES 0247
BITMAP
7840
ffc0
87c0
ENDCHAR
STARTCHAR C000177
ENCODING 127
SWIDTH 480 0
DWIDTH 10 0
BBX 10 10 0 0
ATTRIBUTES 01f7
BITMAP
ffc0
8040
8040
8040
8040
8040
8040
8040
8040
ffc0
ENDCHAR
STARTCHAR C000200
ENCODING 128
SWIDTH 768 0
DWIDTH 16 0
BBX 11 13 2 0
ATTRIBUTES 02ee
BITMAP
ffe0
8020
8020
8020
8020
8020
8020
8020
8020
8020
8020
8020
ffe0
ENDCHAR
STARTCHAR C000201
ENCODING 129
SWIDTH 768 0
DWIDTH 16 0
BBX 11 13 2 0
ATTRIBUTES 02ee
BITMAP
ffe0
8020
8020
8020
8020
8020
8020
8020
8020
8020
8020
8020
ffe0
ENDCHAR
STARTCHAR C000202
ENCODING 130
SWIDTH 768 0
DWIDTH 16 0
BBX 11 13 2 0
ATTRIBUTES 02ee
BITMAP
ffe0
8020
8020
8020
8020
8020
8020
8020
8020
8020
8020
8020
ffe0
ENDCHAR
STARTCHAR C000203
ENCODING 131
SWIDTH 768 0
DWIDTH 16 0
BBX 11 13 2 0
ATTRIBUTES 02ee
BITMAP
ffe0
8020
8020
8020
8020
8020
8020
8020
8020
8020
8020
8020
ffe0
ENDCHAR
STARTCHAR C000204
ENCODING 132
SWIDTH 768 0
DWIDTH 16 0
BBX 11 13 2 0
ATTRIBUTES 02ee
BITMAP
ffe0
8020
8020
8020
8020
8020
8020
8020
8020
8020
8020
8020
ffe0
ENDCHAR
STARTCHAR C000205
ENCODING 133
SWIDTH 768 0
DWIDTH 16 0
BBX 11 13 2 0
ATTRIBUTES 02ee
BITMAP
ffe0
8020
8020
8020
8020
8020
8020
8020
8020
8020
8020
8020
ffe0
ENDCHAR
STARTCHAR C000206
ENCODING 134
SWIDTH 768 0
DWIDTH 16 0
BBX 11 13 2 0
ATTRIBUTES 02ee
BITMAP
ffe0
8020
8020
8020
8020
8020
8020
8020
8020
8020
8020
8020
ffe0
ENDCHAR
STARTCHAR C000207
ENCODING 135
SWIDTH 768 0
DWIDTH 16 0
BBX 11 13 2 0
ATTRIBUTES 02ee
BITMAP
ffe0
8020
8020
8020
8020
8020
8020
8020
8020
8020
8020
8020
ffe0
ENDCHAR
STARTCHAR C000210
ENCODING 136
SWIDTH 768 0
DWIDTH 16 0
BBX 11 13 2 0
ATTRIBUTES 02ee
BITMAP
ffe0
8020
8020
8020
8020
8020
8020
8020
8020
8020
8020
8020
ffe0
ENDCHAR
STARTCHAR C000211
ENCODING 137
SWIDTH 768 0
DWIDTH 16 0
BBX 11 13 2 0
ATTRIBUTES 02ee
BITMAP
ffe0
8020
8020
8020
8020
8020
8020
8020
8020
8020
8020
8020
ffe0
ENDCHAR
STARTCHAR C000212
ENCODING 138
SWIDTH 768 0
DWIDTH 16 0
BBX 11 13 2 0
ATTRIBUTES 02ee
BITMAP
ffe0
8020
8020
8020
8020
8020
8020
8020
8020
8020
8020
8020
ffe0
ENDCHAR
STARTCHAR C000213
ENCODING 139
SWIDTH 768 0
DWIDTH 16 0
BBX 11 13 2 0
ATTRIBUTES 02ee
BITMAP
ffe0
8020
8020
8020
8020
8020
8020
8020
8020
8020
8020
8020
ffe0
ENDCHAR
STARTCHAR C000214
ENCODING 140
SWIDTH 768 0
DWIDTH 16 0
BBX 11 13 2 0
ATTRIBUTES 02ee
BITMAP
ffe0
8020
8020
8020
8020
8020
8020
8020
8020
8020
8020
8020
ffe0
ENDCHAR
STARTCHAR C000215
ENCODING 141
SWIDTH 768 0
DWIDTH 16 0
BBX 11 13 2 0
ATTRIBUTES 02ee
BITMAP
ffe0
8020
8020
8020
8020
8020
8020
8020
8020
8020
8020
8020
ffe0
ENDCHAR
STARTCHAR C000216
ENCODING 142
SWIDTH 768 0
DWIDTH 16 0
BBX 11 13 2 0
ATTRIBUTES 02ee
BITMAP
ffe0
8020
8020
8020
8020
8020
8020
8020
8020
8020
8020
8020
ffe0
ENDCHAR
STARTCHAR C000217
ENCODING 143
SWIDTH 768 0
DWIDTH 16 0
BBX 11 13 2 0
ATTRIBUTES 02ee
BITMAP
ffe0
8020
8020
8020
8020
8020
8020
8020
8020
8020
8020
8020
ffe0
ENDCHAR
STARTCHAR C000220
ENCODING 144
SWIDTH 768 0
DWIDTH 16 0
BBX 11 13 2 0
ATTRIBUTES 02ee
BITMAP
ffe0
8020
8020
8020
8020
8020
8020
8020
8020
8020
8020
8020
ffe0
ENDCHAR
STARTCHAR C000221
ENCODING 145
SWIDTH 768 0
DWIDTH 16 0
BBX 11 13 2 0
ATTRIBUTES 02ee
BITMAP
ffe0
8020
8020
8020
8020
8020
8020
8020
8020
8020
8020
8020
ffe0
ENDCHAR
STARTCHAR C000222
ENCODING 146
SWIDTH 768 0
DWIDTH 16 0
BBX 11 13 2 0
ATTRIBUTES 02ee
BITMAP
ffe0
8020
8020
8020
8020
8020
8020
8020
8020
8020
8020
8020
ffe0
ENDCHAR
STARTCHAR C000223
ENCODING 147
SWIDTH 768 0
DWIDTH 16 0
BBX 11 13 2 0
ATTRIBUTES 02ee
BITMAP
ffe0
8020
8020
8020
8020
8020
8020
8020
8020
8020
8020
8020
ffe0
ENDCHAR
STARTCHAR C000224
ENCODING 148
SWIDTH 768 0
DWIDTH 16 0
BBX 11 13 2 0
ATTRIBUTES 02ee
BITMAP
ffe0
8020
8020
8020
8020
8020
8020
8020
8020
8020
8020
8020
ffe0
ENDCHAR
STARTCHAR C000225
ENCODING 149
SWIDTH 768 0
DWIDTH 16 0
BBX 11 13 2 0
ATTRIBUTES 02ee
BITMAP
ffe0
8020
8020
8020
8020
8020
8020
8020
8020
8020
8020
8020
ffe0
ENDCHAR
STARTCHAR C000226
ENCODING 150
SWIDTH 768 0
DWIDTH 16 0
BBX 11 13 2 0
ATTRIBUTES 02ee
BITMAP
ffe0
8020
8020
8020
8020
8020
8020
8020
8020
8020
8020
8020
ffe0
ENDCHAR
STARTCHAR C000227
ENCODING 151
SWIDTH 768 0
DWIDTH 16 0
BBX 11 13 2 0
ATTRIBUTES 02ee
BITMAP
ffe0
8020
8020
8020
8020
8020
8020
8020
8020
8020
8020
8020
ffe0
ENDCHAR
STARTCHAR C000230
ENCODING 152
SWIDTH 768 0
DWIDTH 16 0
BBX 11 13 2 0
ATTRIBUTES 02ee
BITMAP
ffe0
8020
8020
8020
8020
8020
8020
8020
8020
8020
8020
8020
ffe0
ENDCHAR
STARTCHAR C000231
ENCODING 153
SWIDTH 768 0
DWIDTH 16 0
BBX 11 13 2 0
ATTRIBUTES 02ee
BITMAP
ffe0
8020
8020
8020
8020
8020
8020
8020
8020
8020
8020
8020
ffe0
ENDCHAR
STARTCHAR C000232
ENCODING 154
SWIDTH 768 0
DWIDTH 16 0
BBX 11 13 2 0
ATTRIBUTES 02ee
BITMAP
ffe0
8020
8020
8020
8020
8020
8020
8020
8020
8020
8020
8020
ffe0
ENDCHAR
STARTCHAR C000233
ENCODING 155
SWIDTH 768 0
DWIDTH 16 0
BBX 11 13 2 0
ATTRIBUTES 02ee
BITMAP
ffe0
8020
8020
8020
8020
8020
8020
8020
8020
8020
8020
8020
ffe0
ENDCHAR
STARTCHAR C000234
ENCODING 156
SWIDTH 768 0
DWIDTH 16 0
BBX 11 13 2 0
ATTRIBUTES 02ee
BITMAP
ffe0
8020
8020
8020
8020
8020
8020
8020
8020
8020
8020
8020
ffe0
ENDCHAR
STARTCHAR C000235
ENCODING 157
SWIDTH 768 0
DWIDTH 16 0
BBX 11 13 2 0
ATTRIBUTES 02ee
BITMAP
ffe0
8020
8020
8020
8020
8020
8020
8020
8020
8020
8020
8020
ffe0
ENDCHAR
STARTCHAR C000236
ENCODING 158
SWIDTH 768 0
DWIDTH 16 0
BBX 11 13 2 0
ATTRIBUTES 02ee
BITMAP
ffe0
8020
8020
8020
8020
8020
8020
8020
8020
8020
8020
8020
ffe0
ENDCHAR
STARTCHAR C000237
ENCODING 159
SWIDTH 768 0
DWIDTH 16 0
BBX 11 13 2 0
ATTRIBUTES 02ee
BITMAP
ffe0
8020
8020
8020
8020
8020
8020
8020
8020
8020
8020
8020
ffe0
ENDCHAR
STARTCHAR nobreakspace
ENCODING 160
SWIDTH 288 0
DWIDTH 6 0
BBX 0 0 0 0
ATTRIBUTES 0117
BITMAP
ENDCHAR
STARTCHAR exclamdown
ENCODING 161
SWIDTH 336 0
DWIDTH 7 0
BBX 2 15 2 -4
ATTRIBUTES 014c
BITMAP
c0
c0
c0
00
c0
c0
c0
c0
c0
c0
c0
c0
c0
c0
c0
ENDCHAR
STARTCHAR cent
ENCODING 162
SWIDTH 576 0
DWIDTH 12 0
BBX 9 19 1 -4
ATTRIBUTES 022c
BITMAP
0100
0200
0200
0200
1e00
7f00
6700
c500
c800
c800
c800
d980
7180
7700
3e00
3000
2000
2000
2000
ENDCHAR
STARTCHAR sterling
ENCODING 163
SWIDTH 576 0
DWIDTH 12 0
BBX 10 15 1 0
ATTRIBUTES 022c
BITMAP
1f00
3b80
7180
60c0
6000
6000
6000
fc00
fc00
3000
3000
3000
6000
fec0
efc0
ENDCHAR
STARTCHAR currency
ENCODING 164
SWIDTH 576 0
DWIDTH 12 0
BBX 10 10 1 2
ATTRIBUTES 022c
BITMAP
c4c0
7f80
7380
6180
4080
6180
6180
7f80
ccc0
4040
ENDCHAR
STARTCHAR yen
ENCODING 165
SWIDTH 576 0
DWIDTH 12 0
BBX 11 15 0 0
ATTRIBUTES 022c
BITMAP
c060
60c0
60c0
3180
3180
1b00
1b00
7fc0
7fc0
0400
7fc0
0400
0400
0400
0400
ENDCHAR
STARTCHAR brokenbar
ENCODING 166
SWIDTH 240 0
DWIDTH 5 0
BBX 2 19 2 -4
ATTRIBUTES 0103
BITMAP
c0
c0
c0
c0
c0
c0
c0
c0
00
00
00
c0
c0
c0
c0
c0
c0
c0
c0
ENDCHAR
STARTCHAR section
ENCODING 167
SWIDTH 576 0
DWIDTH 12 0
BBX 10 19 1 -4
ATTRIBUTES 022c
BITMAP
1e00
3f00
6180
6180
7000
3800
6e00
c700
c380
c0c0
70c0
38c0
1f80
0700
0380
6180
6180
7380
3f00
ENDCHAR
STARTCHAR diaeresis
ENCODING 168
SWIDTH 336 0
DWIDTH 7 0
BBX 6 2 0 13
ATTRIBUTES 014c
BITMAP
cc
cc
ENDCHAR
STARTCHAR copyright
ENCODING 169
SWIDTH 720 0
DWIDTH 15 0
BBX 15 14 0 1
ATTRIBUTES 02df
BITMAP
0fc0
3870
6018
478c
cc44
9826
9802
9002
9806
d864
4ccc
6798
3870
0fc0
ENDCHAR
STARTCHAR ordfeminine
ENCODING 170
SWIDTH 384 0
DWIDTH 8 0
BBX 7 7 0 8
ATTRIBUTES 0174
BITMAP
7c
44
06
7e
c6
ce
7e
ENDCHAR
STARTCHAR guillemotleft
ENCODING 171
SWIDTH 576 0
DWIDTH 12 0
BBX 9 9 1 1
ATTRIBUTES 022c
BITMAP
1980
3300
2300
6600
cc00
6600
6600
3300
1180
ENDCHAR
STARTCHAR notsign
ENCODING 172
SWIDTH 576 0
DWIDTH 12 0
BBX 10 6 1 4
ATTRIBUTES 0247
BITMAP
ffc0
00c0
00c0
00c0
00c0
00c0
ENDCHAR
STARTCHAR hyphen
ENCODING 173
SWIDTH 336 0
DWIDTH 7 0
BBX 6 2 0 4
ATTRIBUTES 014c
BITMAP
fc
fc
ENDCHAR
STARTCHAR registered
ENCODING 174
SWIDTH 720 0
DWIDTH 15 0
BBX 15 14 0 0
ATTRIBUTES 02df
BITMAP
0fe0
3870
6018
4fcc
c844
8846
8fc2
8982
88c6
c844
486c
3018
1c70
0780
ENDCHAR
STARTCHAR macron
ENCODING 175
SWIDTH 528 0
DWIDTH 11 0
BBX 12 1 0 16
ATTRIBUTES 0227
BITMAP
fff0
ENDCHAR
STARTCHAR degree
ENCODING 176
SWIDTH 384 0
DWIDTH 8 0
BBX 6 5 1 10
ATTRIBUTES 018f
BITMAP
78
cc
84
cc
78
ENDCHAR
STARTCHAR plusminus
ENCODING 177
SWIDTH 528 0
DWIDTH 11 0
BBX 10 12 0 0
ATTRIBUTES 0223
BITMAP
0c00
0c00
0c00
ffc0
ffc0
0c00
0c00
0c00
0c00
0000
ffc0
ffc0
ENDCHAR
STARTCHAR twosuperior
ENCODING 178
SWIDTH 336 0
DWIDTH 7 0
BBX 6 8 0 7
ATTRIBUTES 014c
BITMAP
78
4c
0c
08
30
60
fc
fc
ENDCHAR
STARTCHAR threesuperior
ENCODING 179
SWIDTH 336 0
DWIDTH 7 0
BBX 6 8 0 7
ATTRIBUTES 014c
BITMAP
78
c8
08
10
0c
4c
78
30
ENDCHAR
STARTCHAR acute
ENCODING 180
SWIDTH 336 0
DWIDTH 7 0
BBX 4 3 2 12
ATTRIBUTES 014c
BITMAP
70
60
c0
ENDCHAR
STARTCHAR mu
ENCODING 181
SWIDTH 576 0
DWIDTH 12 0
BBX 9 15 1 -4
ATTRIBUTES 0240
BITMAP
c180
c180
c180
c180
c180
c180
c180
c180
e380
f780
dd80
c000
c000
c000
c000
ENDCHAR
STARTCHAR paragraph
ENCODING 182
SWIDTH 528 0
DWIDTH 11 0
BBX 11 19 0 -4
ATTRIBUTES 0218
BITMAP
1fe0
7fe0
fcc0
fcc0
fcc0
fcc0
7cc0
7cc0
0cc0
0cc0
0cc0
0cc0
0cc0
0cc0
0cc0
0cc0
0cc0
0cc0
0cc0
ENDCHAR
STARTCHAR periodcentered
ENCODING 183
SWIDTH 288 0
DWIDTH 6 0
BBX 2 2 2 6
ATTRIBUTES 0117
BITMAP
c0
c0
ENDCHAR
STARTCHAR cedilla
ENCODING 184
SWIDTH 336 0
DWIDTH 7 0
BBX 5 4 1 -4
ATTRIBUTES 014c
BITMAP
20
78
18
f0
ENDCHAR
STARTCHAR onesuperior
ENCODING 185
SWIDTH 480 0
DWIDTH 10 0
BBX 10 10 0 0
ATTRIBUTES 01f7
BITMAP
ffc0
8040
8040
8040
8040
8040
8040
8040
8040
ffc0
ENDCHAR
STARTCHAR masculine
ENCODING 186
SWIDTH 384 0
DWIDTH 8 0
BBX 6 6 1 8
ATTRIBUTES 016b
BITMAP
3c
64
40
40
64
3c
ENDCHAR
STARTCHAR guillemotright
ENCODING 187
SWIDTH 576 0
DWIDTH 12 0
BBX 9 9 1 1
ATTRIBUTES 022c
BITMAP
cc00
6600
6200
3300
1980
3300
3300
6600
c400
ENDCHAR
STARTCHAR onequarter
ENCODING 188
SWIDTH 816 0
DWIDTH 17 0
BBX 16 16 0 -1
ATTRIBUTES 0343
BITMAP
300c
7008
b010
3030
3060
3040
30c0
3180
0106
020e
061e
0c36
083f
1806
3006
2000
ENDCHAR
STARTCHAR onehalf
ENCODING 189
SWIDTH 816 0
DWIDTH 17 0
BBX 16 15 0 0
ATTRIBUTES 0343
BITMAP
300c
7018
b010
3030
3060
30c0
3080
3180
031e
0233
0403
0c06
180c
1018
303f
ENDCHAR
STARTCHAR threequarters
ENCODING 190
SWIDTH 816 0
DWIDTH 17 0
BBX 17 16 0 -1
ATTRIBUTES 0343
BITMAP
780600
cc0c00
0c0800
181800
0c3000
442000
7c4000
30c000
018300
010700
030f00
061b00
043f80
080300
180300
300000
ENDCHAR
STARTCHAR questiondown
ENCODING 191
SWIDTH 624 0
DWIDTH 13 0
BBX 10 15 1 -4
ATTRIBUTES 0263
BITMAP
0c00
0c00
0c00
0000
0c00
0c00
1c00
3800
7000
e000
c000
c0c0
e1c0
7380
3f00
ENDCHAR
STARTCHAR Agrave
ENCODING 192
SWIDTH 672 0
DWIDTH 14 0
BBX 14 19 0 0
ATTRIBUTES 029b
BITMAP
0600
0300
0300
0000
0300
0700
0780
0d80
0cc0
0cc0
18e0
1860
3060
3ff0
3030
6038
6018
6018
c00c
ENDCHAR
STARTCHAR Aacute
ENCODING 193
SWIDTH 672 0
DWIDTH 14 0
BBX 14 19 0 0
ATTRIBUTES 029b
BITMAP
01c0
0180
0300
0000
0300
0700
0780
0d80
0cc0
0cc0
18e0
1860
3060
3ff0
3030
6038
6018
6018
c00c
ENDCHAR
STARTCHAR Acircumflex
ENCODING 194
SWIDTH 672 0
DWIDTH 14 0
BBX 14 19 0 0
ATTRIBUTES 029b
BITMAP
0300
0780
0cc0
0000
0300
0700
0780
0d80
0cc0
0cc0
18e0
1860
3060
3ff0
3030
6038
6018
6018
c00c
ENDCHAR
STARTCHAR Atilde
ENCODING 195
SWIDTH 672 0
DWIDTH 14 0
BBX 14 18 0 0
ATTRIBUTES 029b
BITMAP
0f40
0bc0
0000
0300
0700
0780
0d80
0cc0
0cc0
18c0
1860
1060
3ff0
3030
6038
6018
6018
c00c
ENDCHAR
STARTCHAR Adiaeresis
ENCODING 196
SWIDTH 672 0
DWIDTH 14 0
BBX 14 18 0 0
ATTRIBUTES 029b
BITMAP
0cc0
0cc0
0000
0300
0700
0780
0c80
0cc0
0cc0
1860
1860
3820
3ff0
3030
6038
6018
6018
c00c
ENDCHAR
STARTCHAR Aring
ENCODING 197
SWIDTH 672 0
DWIDTH 14 0
BBX 14 18 0 0
ATTRIBUTES 029b
BITMAP
0300
0480
0480
0300
0700
0780
0d80
0cc0
0cc0
18c0
1860
1060
3ff0
3030
6038
6018
6018
c00c
ENDCHAR
STARTCHAR AE
ENCODING 198
SWIDTH 1008 0
DWIDTH 21 0
BBX 20 15 0 0
ATTRIBUTES 03e8
BITMAP
01fff0
01fff0
033000
033000
063000
063000
0c3fe0
0c3fe0
183000
1ff000
303000
303000
603ff0
603ff0
c03ff0
ENDCHAR
STARTCHAR Ccedilla
ENCODING 199
SWIDTH 720 0
DWIDTH 15 0
BBX 13 19 1 -4
ATTRIBUTES 02d4
BITMAP
0fc0
3fe0
7070
6030
6010
c000
c000
c000
c000
c000
6018
6030
3030
3de0
0f80
0600
0700
0100
0f00
ENDCHAR
STARTCHAR Egrave
ENCODING 200
SWIDTH 672 0
DWIDTH 14 0
BBX 11 19 2 0
ATTRIBUTES 029b
BITMAP
1c00
0c00
0600
0000
ffe0
ffe0
c000
c000
c000
c000
ffc0
ffc0
c000
c000
c000
c000
ffe0
ffe0
ffe0
ENDCHAR
STARTCHAR Eacute
ENCODING 201
SWIDTH 672 0
DWIDTH 14 0
BBX 11 19 2 0
ATTRIBUTES 029b
BITMAP
0700
0600
0c00
0000
ffe0
ffe0
c000
c000
c000
c000
ffc0
ffc0
c000
c000
c000
c000
ffe0
ffe0
ffe0
ENDCHAR
STARTCHAR Ecircumflex
ENCODING 202
SWIDTH 672 0
DWIDTH 14 0
BBX 11 19 2 0
ATTRIBUTES 029b
BITMAP
0c00
0a00
1b00
0000
ffe0
ffe0
c000
c000
c000
c000
ffc0
ffc0
c000
c000
c000
c000
ffe0
ffe0
ffe0
ENDCHAR
STARTCHAR Ediaeresis
ENCODING 203
SWIDTH 672 0
DWIDTH 14 0
BBX 11 18 2 0
ATTRIBUTES 029b
BITMAP
3300
3300
0000
ffe0
ffe0
c000
c000
c000
c000
ffc0
ffc0
c000
c000
c000
c000
ffe0
ffe0
ffe0
ENDCHAR
STARTCHAR Igrave
ENCODING 204
SWIDTH 288 0
DWIDTH 6 0
BBX 4 19 0 0
ATTRIBUTES 0117
BITMAP
e0
60
30
00
70
70
70
70
70
70
70
70
70
70
70
70
70
70
70
ENDCHAR
STARTCHAR Iacute
ENCODING 205
SWIDTH 288 0
DWIDTH 6 0
BBX 4 19 1 0
ATTRIBUTES 0117
BITMAP
70
60
c0
00
60
60
60
60
60
60
60
60
60
60
60
60
60
60
60
ENDCHAR
STARTCHAR Icircumflex
ENCODING 206
SWIDTH 288 0
DWIDTH 6 0
BBX 6 19 0 0
ATTRIBUTES 0117
BITMAP
30
78
48
00
30
30
30
30
30
30
30
30
30
30
30
30
30
30
30
ENDCHAR
STARTCHAR Idiaeresis
ENCODING 207
SWIDTH 288 0
DWIDTH 6 0
BBX 6 18 0 0
ATTRIBUTES 0117
BITMAP
cc
cc
00
30
30
30
30
30
30
30
30
30
30
30
30
30
30
30
ENDCHAR
STARTCHAR ETH
ENCODING 208
SWIDTH 720 0
DWIDTH 15 0
BBX 14 14 0 0
ATTRIBUTES 02d4
BITMAP
3fc0
3ff0
3030
3018
300c
300c
ff0c
300c
300c
301c
3038
3ff8
3ff0
3fc0
ENDCHAR
STARTCHAR Ntilde
ENCODING 209
SWIDTH 720 0
DWIDTH 15 0
BBX 11 18 2 0
ATTRIBUTES 02d4
BITMAP
1c80
1700
0000
c060
e060
e060
f060
d860
d860
cc60
ce60
c660
c360
c360
c1e0
c0e0
c0e0
c060
ENDCHAR
STARTCHAR Ograve
ENCODING 210
SWIDTH 768 0
DWIDTH 16 0
BBX 14 19 1 0
ATTRIBUTES 030b
BITMAP
0600
0600
0300
0000
0f80
1fe0
3030
6018
e018
c00c
c00c
c00c
c00c
c00c
6018
6018
3030
1fe0
0f80
ENDCHAR
STARTCHAR Oacute
ENCODING 211
SWIDTH 768 0
DWIDTH 16 0
BBX 14 19 1 0
ATTRIBUTES 030b
BITMAP
0180
0180
0300
0000
0f80
1fe0
3030
6018
e018
c00c
c00c
c00c
c00c
c00c
6018
6018
3030
1fe0
0f80
ENDCHAR
STARTCHAR Ocircumflex
ENCODING 212
SWIDTH 768 0
DWIDTH 16 0
BBX 14 19 1 0
ATTRIBUTES 030b
BITMAP
0300
0780
0cc0
0000
0f80
1fe0
3030
6018
e018
c00c
c00c
c00c
c00c
c00c
6018
6018
3030
1fe0
0f80
ENDCHAR
STARTCHAR Otilde
ENCODING 213
SWIDTH 768 0
DWIDTH 16 0
BBX 14 18 1 0
ATTRIBUTES 030b
BITMAP
0f40
09c0
0000
0f80
1fe0
3030
6018
e018
c00c
c00c
c00c
c00c
c00c
6018
6018
3030
1fe0
0f80
ENDCHAR
STARTCHAR Odiaeresis
ENCODING 214
SWIDTH 768 0
DWIDTH 16 0
BBX 14 18 1 0
ATTRIBUTES 030b
BITMAP
0cc0
0cc0
0000
0f80
1fe0
3030
6018
e018
c00c
c00c
c00c
c00c
c00c
6018
6018
3030
1fe0
0f80
ENDCHAR
STARTCHAR multiply
ENCODING 215
SWIDTH 576 0
DWIDTH 12 0
BBX 9 9 2 3
ATTRIBUTES 0247
BITMAP
4100
e380
7700
3e00
1c00
3e00
7700
e380
4100
ENDCHAR
STARTCHAR Ooblique
ENCODING 216
SWIDTH 768 0
DWIDTH 16 0
BBX 15 16 0 -1
ATTRIBUTES 030b
BITMAP
07c6
1ffc
3838
603c
606c
404c
c08e
c106
c306
c60c
6c0c
781c
3038
7ef0
c7c0
4000
ENDCHAR
STARTCHAR Ugrave
ENCODING 217
SWIDTH 720 0
DWIDTH 15 0
BBX 11 19 2 0
ATTRIBUTES 02d4
BITMAP
1800
0c00
0400
0000
c060
c060
c060
c060
c060
c060
c060
c060
c060
c060
c060
c060
60c0
7f80
1f00
ENDCHAR
STARTCHAR Uacute
ENCODING 218
SWIDTH 720 0
DWIDTH 15 0
BBX 11 19 2 0
ATTRIBUTES 02d4
BITMAP
0300
0600
0400
0000
c060
c060
c060
c060
c060
c060
c060
c060
c060
c060
c060
c060
60c0
7f80
1f00
ENDCHAR
STARTCHAR Ucircumflex
ENCODING 219
SWIDTH 720 0
DWIDTH 15 0
BBX 11 19 2 0
ATTRIBUTES 02d4
BITMAP
0c00
0e00
1b00
0000
c060
c060
c060
c060
c060
c060
c060
c060
c060
c060
c060
c060
60c0
7f80
1f00
ENDCHAR
STARTCHAR Udiaeresis
ENCODING 220
SWIDTH 720 0
DWIDTH 15 0
BBX 11 18 2 0
ATTRIBUTES 02d4
BITMAP
3300
3300
0000
c060
c060
c060
c060
c060
c060
c060
c060
c060
c060
c060
c060
e0c0
7fc0
1f00
ENDCHAR
STARTCHAR Yacute
ENCODING 221
SWIDTH 672 0
DWIDTH 14 0
BBX 14 19 0 0
ATTRIBUTES 029b
BITMAP
01c0
0180
0300
0000
e01c
6018
3030
3870
1860
0cc0
0f80
0780
0300
0300
0300
0300
0300
0300
0300
ENDCHAR
STARTCHAR THORN
ENCODING 222
SWIDTH 672 0
DWIDTH 14 0
BBX 11 15 2 0
ATTRIBUTES 029b
BITMAP
c000
c000
c000
ff00
ffc0
c0e0
c060
c060
c060
c0c0
ffc0
ff00
c000
c000
c000
ENDCHAR
STARTCHAR ssharp
ENCODING 223
SWIDTH 624 0
DWIDTH 13 0
BBX 10 15 2 0
ATTRIBUTES 0263
BITMAP
3c00
7e00
c300
c300
c600
c600
c400
c600
c700
c380
c1c0
c0c0
c8c0
cd80
c700
ENDCHAR
STARTCHAR agrave
ENCODING 224
SWIDTH 576 0
DWIDTH 12 0
BBX 10 15 1 0
ATTRIBUTES 022c
BITMAP
1800
0c00
0c00
0000
1f00
7f80
6180
2080
0380
3f80
f080
c180
c180
67c0
3cc0
ENDCHAR
STARTCHAR aacute
ENCODING 225
SWIDTH 576 0
DWIDTH 12 0
BBX 10 15 1 0
ATTRIBUTES 022c
BITMAP
0600
0600
0c00
0000
1f00
7f80
6180
2080
0380
3f80
f080
c180
c180
67c0
3cc0
ENDCHAR
STARTCHAR acircumflex
ENCODING 226
SWIDTH 576 0
DWIDTH 12 0
BBX 10 15 1 0
ATTRIBUTES 022c
BITMAP
0c00
1e00
3300
0000
1f00
7f80
6180
2080
0380
3f80
f080
c180
c180
67c0
3cc0
ENDCHAR
STARTCHAR atilde
ENCODING 227
SWIDTH 576 0
DWIDTH 12 0
BBX 10 15 1 0
ATTRIBUTES 022c
BITMAP
1100
3f00
2600
0000
1f00
7f80
6180
2080
0380
3f80
f080
c180
c180
67c0
3cc0
ENDCHAR
STARTCHAR adiaeresis
ENCODING 228
SWIDTH 576 0
DWIDTH 12 0
BBX 10 15 1 0
ATTRIBUTES 022c
BITMAP
3300
3300
3300
0000
3f00
7f80
e180
2080
0380
7f80
f080
c1c0
c1c0
e7c0
3cc0
ENDCHAR
STARTCHAR aring
ENCODING 229
SWIDTH 576 0
DWIDTH 12 0
BBX 10 15 1 0
ATTRIBUTES 022c
BITMAP
0c00
1200
0c00
0000
1f00
7f80
6180
2080
0780
7f80
f080
c180
c180
67c0
3cc0
ENDCHAR
STARTCHAR ae
ENCODING 230
SWIDTH 864 0
DWIDTH 18 0
BBX 17 10 0 1
ATTRIBUTES 0378
BITMAP
040800
3f7e00
61e300
c1c380
018180
3fff80
618000
c18180
c3c300
7e7e00
ENDCHAR
STARTCHAR ccedilla
ENCODING 231
SWIDTH 480 0
DWIDTH 10 0
BBX 9 15 0 -4
ATTRIBUTES 01f4
BITMAP
0000
0000
0000
0000
0080
0080
0080
0080
0080
8000
8000
0000
0000
0000
0000
ENDCHAR
STARTCHAR egrave
ENCODING 232
SWIDTH 576 0
DWIDTH 12 0
BBX 10 14 1 1
ATTRIBUTES 022c
BITMAP
0000
0000
0000
0000
0000
0000
0000
0040
80c0
c0c0
c0c0
c0c0
00c0
c040
ENDCHAR
STARTCHAR eacute
ENCODING 233
SWIDTH 576 0
DWIDTH 12 0
BBX 10 14 1 1
ATTRIBUTES 022c
BITMAP
8000
0000
0000
0000
0000
0000
0000
0000
0040
80c0
c0c0
c0c0
c0c0
00c0
ENDCHAR
STARTCHAR ecircumflex
ENCODING 234
SWIDTH 576 0
DWIDTH 12 0
BBX 10 14 1 1
ATTRIBUTES 022c
BITMAP
c040
8000
0000
0000
0000
0000
0000
0000
0000
0040
80c0
c0c0
c0c0
c0c0
ENDCHAR
STARTCHAR ediaeresis
ENCODING 235
SWIDTH 576 0
DWIDTH 12 0
BBX 10 14 1 1
ATTRIBUTES 022c
BITMAP
00c0
c040
8000
0000
0000
0000
0000
0000
0000
0000
0040
80c0
c0c0
c0c0
ENDCHAR
STARTCHAR igrave
ENCODING 236
SWIDTH 288 0
DWIDTH 6 0
BBX 4 15 0 0
ATTRIBUTES 0117
BITMAP
c0
c0
00
c0
c0
70
80
30
00
00
00
e0
60
30
00
ENDCHAR
STARTCHAR iacute
ENCODING 237
SWIDTH 288 0
DWIDTH 6 0
BBX 4 15 1 0
ATTRIBUTES 0117
BITMAP
30
30
30
30
30
30
30
30
30
30
30
70
60
c0
00
ENDCHAR
STARTCHAR icircumflex
ENCODING 238
SWIDTH 288 0
DWIDTH 6 0
BBX 6 15 0 0
ATTRIBUTES 0117
BITMAP
c0
c0
c0
c0
c0
c0
c0
c0
c0
c0
c0
30
78
cc
00
ENDCHAR
STARTCHAR idiaeresis
ENCODING 239
SWIDTH 288 0
DWIDTH 6 0
BBX 6 15 0 0
ATTRIBUTES 0117
BITMAP
30
30
30
30
30
30
30
30
30
30
30
cc
cc
00
00
ENDCHAR
STARTCHAR eth
ENCODING 240
SWIDTH 576 0
DWIDTH 12 0
BBX 10 15 1 0
ATTRIBUTES 022c
BITMAP
3000
3000
3000
3000
3000
3000
0000
0000
0000
0000
0000
8040
80c0
c0c0
c0c0
ENDCHAR
STARTCHAR ntilde
ENCODING 241
SWIDTH 576 0
DWIDTH 12 0
BBX 9 15 1 0
ATTRIBUTES 022c
BITMAP
c080
c080
c000
8000
8000
0000
0000
0000
0000
0080
0080
0080
8080
8080
8080
ENDCHAR
STARTCHAR ograve
ENCODING 242
SWIDTH 576 0
DWIDTH 12 0
BBX 10 15 1 0
ATTRIBUTES 022c
BITMAP
80c0
80c0
80c0
80c0
80c0
8000
0000
0000
0000
0000
0040
8040
80c0
c0c0
c0c0
ENDCHAR
STARTCHAR oacute
ENCODING 243
SWIDTH 576 0
DWIDTH 12 0
BBX 10 15 1 0
ATTRIBUTES 022c
BITMAP
c0c0
c0c0
c040
8040
0000
0000
0000
0000
0000
0000
0040
8040
80c0
c0c0
c0c0
ENDCHAR
STARTCHAR ocircumflex
ENCODING 244
SWIDTH 576 0
DWIDTH 12 0
BBX 10 15 1 0
ATTRIBUTES 022c
BITMAP
c0c0
c0c0
c040
8040
0000
0000
0000
0000
0000
0000
0040
8040
80c0
c0c0
c0c0
ENDCHAR
STARTCHAR otilde
ENCODING 245
SWIDTH 576 0
DWIDTH 12 0
BBX 10 15 1 0
ATTRIBUTES 022c
BITMAP
c0c0
c0c0
c040
8040
0000
0000
0000
0000
0000
0000
0040
8040
80c0
c0c0
c0c0
ENDCHAR
STARTCHAR odiaeresis
ENCODING 246
SWIDTH 576 0
DWIDTH 12 0
BBX 10 15 1 0
ATTRIBUTES 022c
BITMAP
c0c0
c0c0
c040
8040
0000
0000
0000
0000
0000
0000
0040
80c0
80c0
c0c0
c0c0
ENDCHAR
STARTCHAR division
ENCODING 247
SWIDTH 528 0
DWIDTH 11 0
BBX 10 8 0 3
ATTRIBUTES 0223
BITMAP
c0c0
c0c0
c040
c040
8000
0000
0000
0000
ENDCHAR
STARTCHAR oslash
ENCODING 248
SWIDTH 624 0
DWIDTH 13 0
BBX 10 12 1 -1
ATTRIBUTES 0263
BITMAP
00c0
c0c0
c000
0000
0000
0000
c040
8040
80c0
c0c0
c0c0
c0c0
ENDCHAR
STARTCHAR ugrave
ENCODING 249
SWIDTH 576 0
DWIDTH 12 0
BBX 9 15 1 0
ATTRIBUTES 022c
BITMAP
c080
c000
8000
8000
0000
0000
0000
0000
0000
0080
8080
8080
8080
8080
8080
ENDCHAR
STARTCHAR uacute
ENCODING 250
SWIDTH 576 0
DWIDTH 12 0
BBX 9 15 1 0
ATTRIBUTES 022c
BITMAP
8080
8080
8080
8000
8000
8000
0000
0000
0000
0080
8080
8080
8080
8080
8080
ENDCHAR
STARTCHAR ucircumflex
ENCODING 251
SWIDTH 576 0
DWIDTH 12 0
BBX 9 15 1 0
ATTRIBUTES 022c
BITMAP
8080
8080
8080
8000
8000
8000
0000
0000
0000
0080
8080
8080
8080
8080
8080
ENDCHAR
STARTCHAR udiaeresis
ENCODING 252
SWIDTH 576 0
DWIDTH 12 0
BBX 9 15 1 0
ATTRIBUTES 022c
BITMAP
8080
8080
8080
8000
8000
8000
0000
0000
0000
0080
8080
8080
8080
8080
8080
ENDCHAR
STARTCHAR yacute
ENCODING 253
SWIDTH 480 0
DWIDTH 10 0
BBX 10 19 0 -4
ATTRIBUTES 01f4
BITMAP
80c0
80c0
80c0
8040
8000
8000
0000
0000
0000
00c0
c0c0
c040
8040
8000
0000
0000
0000
0000
0000
ENDCHAR
STARTCHAR thorn
ENCODING 254
SWIDTH 576 0
DWIDTH 12 0
BBX 9 19 2 -4
ATTRIBUTES 022c
BITMAP
0000
0000
0000
0000
0000
0080
0080
0080
0080
0080
0080
0080
0080
8080
8080
8080
8080
8080
0080
ENDCHAR
STARTCHAR ydiaeresis
ENCODING 255
SWIDTH 480 0
DWIDTH 10 0
BBX 10 19 0 -4
ATTRIBUTES 01f4
BITMAP
00c0
00c0
00c0
00c0
00c0
0000
0000
0000
0000
00c0
c040
8040
8040
8000
0000
0000
0000
0000
0000
ENDCHAR
ENDFONT
